<svg xmlns="http://www.w3.org/2000/svg" width="40" height="40" viewBox="0 0 40 40" fill="none"><rect width="40" height="40" fill="url(#paint0_linear_32_4367)"></rect><path d="M18.0383 24.9422C18.0383 24.1361 18.0959 23.4547 18.2111 22.8981C18.3454 22.3223 18.5757 21.8233 18.902 21.401C19.2475 20.9595 19.545 20.6332 19.7945 20.4221C20.044 20.211 20.4567 19.8943 21.0325 19.472C21.6275 19.0498 22.0306 18.7523 22.2417 18.5795C22.472 18.3876 22.712 18.0709 22.9615 17.6295C23.2302 17.188 23.3645 16.689 23.3645 16.1324C23.3645 15.2686 23.0766 14.5873 22.5008 14.0882C21.9442 13.57 21.2149 13.3109 20.3128 13.3109C19.2379 13.3109 18.3742 13.6372 17.7216 14.2898C17.069 14.9232 16.7332 15.7965 16.714 16.9097H13C13.0384 14.9136 13.691 13.2629 14.9577 11.9577C16.2437 10.6526 18.0191 10 20.284 10C22.4336 10 24.1323 10.5662 25.3799 11.6986C26.6466 12.8311 27.28 14.2706 27.28 16.0172C27.28 16.689 27.2033 17.2936 27.0497 17.831C26.8962 18.3684 26.6562 18.8386 26.3299 19.2417C26.0228 19.6448 25.7541 19.9519 25.5238 20.163C25.2935 20.3741 24.9672 20.6428 24.5449 20.9691C24.353 21.1227 24.0747 21.3338 23.71 21.6025C23.3645 21.852 23.1246 22.0248 22.9903 22.1208C22.8751 22.2167 22.7024 22.3703 22.472 22.5814C22.2417 22.7733 22.0882 22.9365 22.0114 23.0708C21.9538 23.186 21.877 23.3491 21.7811 23.5603C21.6851 23.7522 21.6179 23.9633 21.5795 24.1937C21.5603 24.4048 21.5507 24.6543 21.5507 24.9422H18.0383ZM17.6928 30.9594V26.7848H21.8962V30.9594H17.6928Z" fill="#011B30"></path><defs><linearGradient id="paint0_linear_32_4367" x1="20" y1="0" x2="20" y2="40" gradientUnits="userSpaceOnUse"><stop stop-color="#63FFC0"></stop><stop offset="1" stop-color="#1FB39F"></stop></linearGradient></defs></svg>