<svg xmlns="http://www.w3.org/2000/svg" width="28" height="35" viewBox="0 0 28 35" fill="none"><path fill-rule="evenodd" clip-rule="evenodd" d="M14 0C14.8591 0 15.5556 0.712282 15.5556 1.59091V29.5683L25.3444 19.5569C25.952 18.9356 26.9369 18.9356 27.5445 19.5569C28.1518 20.1782 28.1518 21.1855 27.5445 21.8068L15.0999 34.5342C14.8082 34.8323 14.4126 35 14 35C13.5874 35 13.1918 34.8323 12.9001 34.5342L0.45563 21.8068C-0.151877 21.1855 -0.151877 20.1782 0.45563 19.5569C1.06311 18.9356 2.04802 18.9356 2.6555 19.5569L12.4444 29.5683V1.59091C12.4444 0.712282 13.1409 0 14 0Z" fill="white"></path></svg>